<?xml version="1.0" encoding="UTF-8" standalone="no"?>
<!-- Created with Inkscape (http://www.inkscape.org/) -->

<svg
   xmlns:dc="http://purl.org/dc/elements/1.1/"
   xmlns:cc="http://creativecommons.org/ns#"
   xmlns:rdf="http://www.w3.org/1999/02/22-rdf-syntax-ns#"
   xmlns:svg="http://www.w3.org/2000/svg"
   xmlns="http://www.w3.org/2000/svg"
   xmlns:xlink="http://www.w3.org/1999/xlink"
   xmlns:sodipodi="http://sodipodi.sourceforge.net/DTD/sodipodi-0.dtd"
   xmlns:inkscape="http://www.inkscape.org/namespaces/inkscape"
   width="64"
   height="64"
   id="svg4523"
   version="1.1"
   inkscape:version="0.48.3.1 r9886"
   sodipodi:docname="ammo.svg"
   inkscape:export-filename="/home/michal/Dropbox/grafiki/ammo.png"
   inkscape:export-xdpi="112.5"
   inkscape:export-ydpi="112.5">
  <defs
     id="defs4525">
    <linearGradient
       id="linearGradient5141">
      <stop
         style="stop-color:#ffffff;stop-opacity:1;"
         offset="0"
         id="stop5143" />
      <stop
         style="stop-color:#000000;stop-opacity:1;"
         offset="1"
         id="stop5145" />
    </linearGradient>
    <filter
       inkscape:collect="always"
       id="filter5065"
       x="-0.5509196"
       width="2.1018392"
       y="-0.56991686"
       height="2.1398337">
      <feGaussianBlur
         inkscape:collect="always"
         stdDeviation="4.918925"
         id="feGaussianBlur5067" />
    </filter>
    <radialGradient
       inkscape:collect="always"
       xlink:href="#linearGradient5141"
       id="radialGradient5149"
       cx="-43.050114"
       cy="1007.0165"
       fx="-43.050114"
       fy="1007.0165"
       r="31.363838"
       gradientTransform="matrix(2.0428005,-0.07135412,0.0117684,0.36130449,100.9786,648.48869)"
       gradientUnits="userSpaceOnUse" />
    <radialGradient
       inkscape:collect="always"
       xlink:href="#linearGradient5141"
       id="radialGradient5167"
       cx="7.6077094"
       cy="31.95278"
       fx="7.6077094"
       fy="31.95278"
       r="1.4942648"
       gradientTransform="matrix(5.1674615,-5.3902501,5.0320051,4.2362479,-192.49139,-65.790326)"
       gradientUnits="userSpaceOnUse" />
    <radialGradient
       inkscape:collect="always"
       xlink:href="#linearGradient5141"
       id="radialGradient5173"
       gradientUnits="userSpaceOnUse"
       gradientTransform="matrix(2.0428005,-0.07135412,0.0117684,0.36130449,100.9786,648.48869)"
       cx="-43.050114"
       cy="1007.0165"
       fx="-43.050114"
       fy="1007.0165"
       r="31.363838" />
    <radialGradient
       inkscape:collect="always"
       xlink:href="#linearGradient5141"
       id="radialGradient5175"
       gradientUnits="userSpaceOnUse"
       gradientTransform="matrix(5.1674615,-5.3902501,5.0320051,4.2362479,-192.49139,-65.790326)"
       cx="7.6077094"
       cy="31.95278"
       fx="7.6077094"
       fy="31.95278"
       r="1.4942648" />
  </defs>
  <sodipodi:namedview
     id="base"
     pagecolor="#ffffff"
     bordercolor="#666666"
     borderopacity="1.0"
     inkscape:pageopacity="0.0"
     inkscape:pageshadow="2"
     inkscape:zoom="5.6"
     inkscape:cx="-21.829522"
     inkscape:cy="31.463696"
     inkscape:document-units="px"
     inkscape:current-layer="layer1"
     showgrid="false"
     showguides="true"
     inkscape:guide-bbox="true"
     inkscape:window-width="1680"
     inkscape:window-height="943"
     inkscape:window-x="-4"
     inkscape:window-y="28"
     inkscape:window-maximized="1" />
  <metadata
     id="metadata4528">
    <rdf:RDF>
      <cc:Work
         rdf:about="">
        <dc:format>image/svg+xml</dc:format>
        <dc:type
           rdf:resource="http://purl.org/dc/dcmitype/StillImage" />
        <dc:title></dc:title>
      </cc:Work>
    </rdf:RDF>
  </metadata>
  <g
     inkscape:label="Layer 1"
     inkscape:groupmode="layer"
     id="layer1"
     transform="translate(0,-988.36218)">
    <path
       sodipodi:type="arc"
       style="fill:#ff1d1d;fill-opacity:0.99630995;stroke:none;filter:url(#filter5065)"
       id="path4531"
       sodipodi:cx="28.75"
       sodipodi:cy="28.464285"
       sodipodi:rx="10.714286"
       sodipodi:ry="10.357142"
       d="m 39.464286,28.464285 c 0,5.720092 -4.796949,10.357142 -10.714286,10.357142 -5.917337,0 -10.714286,-4.63705 -10.714286,-10.357142 0,-5.720092 4.796949,-10.357143 10.714286,-10.357143 5.858124,0 10.63019,4.54808 10.71321,10.210364"
       transform="matrix(1.654189,0,0,1.5438708,-16.575791,976.18485)"
       sodipodi:start="0"
       sodipodi:end="6.2690131"
       sodipodi:open="true" />
    <g
       id="g5169"
       transform="matrix(0.85323293,0,0,0.80453637,6.9783541,199.28943)">
      <path
         sodipodi:nodetypes="cscccccccccccccccsc"
         inkscape:connector-curvature="0"
         id="rect5069"
         d="m 2.3599773,1016.1518 c -0.070413,2.6719 -0.1408257,5.3438 -0.2112387,8.0157 -0.070413,2.6718 -0.140826,5.3437 -0.2112388,8.0156 14.4245892,-10e-5 28.8491782,0 43.2737672,0 1.529141,-0.3894 3.038653,-0.8571 4.519676,-1.4114 0.940848,-0.3272 1.881234,-0.6658 2.766275,-1.1357 1.715299,-0.8381 3.441102,-1.6685 5.056428,-2.7029 0.894999,-0.5642 1.734433,-1.2059 2.556576,-1.8763 0.733761,-0.6106 1.344036,-1.3587 1.89014,-2.1485 0.478875,-0.6683 0.641942,-1.6694 -0.0107,-2.2878 -0.601421,-0.8909 -1.321042,-1.6935 -2.081811,-2.4403 -0.816329,-0.8195 -1.760282,-1.4791 -2.681119,-2.1626 -1.099554,-0.7719 -2.231962,-1.4965 -3.39186,-2.1663 -0.807039,-0.4495 -1.660925,-0.7826 -2.490753,-1.186 -1.598717,-0.7159 -3.248126,-1.311 -4.925771,-1.7948 -1.015475,-0.3217 -2.090691,-0.2216 -3.138404,-0.2812 -13.780814,0 -27.561629,0 -41.3424423,0 0.070413,0.9271 0.1408257,1.8542 0.2112385,2.7813 0.070413,0.927 0.1408253,1.8541 0.2112371,2.7812 z"
         style="fill:url(#radialGradient5173);fill-opacity:1;stroke:#e8e8e8;stroke-width:0.39307261;stroke-miterlimit:4;stroke-opacity:1;stroke-dasharray:none" />
      <path
         sodipodi:open="true"
         sodipodi:end="7.805665"
         sodipodi:start="1.5937073"
         transform="matrix(1,0,0,1.0671218,-5.4295699,986.53968)"
         d="M 6.9467159,42.657869 C 6.2321046,42.529662 5.6660724,37.890181 5.6824477,32.295297 5.698823,26.700413 6.2914048,22.268795 7.0060162,22.397002 7.7206275,22.525208 8.2866597,27.16469 8.2702844,32.759574 8.2547279,38.074703 7.717141,42.391926 7.0388759,42.648703"
         sodipodi:ry="10.133093"
         sodipodi:rx="1.294258"
         sodipodi:cy="32.527435"
         sodipodi:cx="6.976366"
         id="path5151"
         style="fill:url(#radialGradient5175);fill-opacity:1;stroke:#e8e8e8;stroke-width:0.40000001;stroke-linecap:round;stroke-linejoin:miter;stroke-miterlimit:4;stroke-opacity:1;stroke-dasharray:none"
         sodipodi:type="arc" />
    </g>
  </g>
</svg>
